<svg width="540" height="960" xmlns="http://www.w3.org/2000/svg"><path fill="#FED8B1" d="M0 0h540v960H0z"/><path d="m0 599 77 87 77-80 77 21 78-4 77 61 77 32 77-109v354H0Z" fill="#a67b5b"/><path d="m0 653 77 82 77-35 77 40 78-104 77 25 77 7 77-35v328H0Z" fill="#b78862"/><path d="m0 798 77-49 77-6 77-10 78-2 77 68 77-72 77 19v215H0Z" fill="#c99569"/><path d="m0 853 77-27 77 11 77-21 78-17 77-11 77 61 77-45v157H0Z" fill="#dba370"/><path d="m0 840 77 14 77 1 77 59 78-51 77 41 77-38 77-16v111H0Z" fill="#ecb176"/></svg>