<svg width="960" height="540" xmlns="http://www.w3.org/2000/svg"><path fill="#FED8B1" d="M0 0h960v540H0z"/><path d="m0 336 137 50 137-45 137 11 138-2 137 34 137 18 137-61v200H0Z" fill="#a67b5b"/><path d="m0 367 137 46 137-20 137 23 138-59 137 14 137 5 137-20v185H0Z" fill="#b78862"/><path d="m0 449 137-28 137-3 137-6 138-1 137 38 137-40 137 10v122H0Z" fill="#c99569"/><path d="m0 479 137-15 137 7 137-13 138-9 137-6 137 34 137-25v89H0Z" fill="#dba370"/><path d="m0 472 137 8h137l137 34 138-29 137 23 137-21 137-9v63H0Z" fill="#ecb176"/></svg>