<?xml version="1.0" standalone="no"?>
<!DOCTYPE svg PUBLIC "-//W3C//DTD SVG 20010904//EN"
 "http://www.w3.org/TR/2001/REC-SVG-20010904/DTD/svg10.dtd">
<svg version="1.0" xmlns="http://www.w3.org/2000/svg"
 width="700.000000pt" height="700.000000pt" viewBox="0 0 700.000000 700.000000"
 preserveAspectRatio="xMidYMid meet">
<metadata>
Created by potrace 1.14, written by Peter Selinger 2001-2017
</metadata>
<g transform="translate(0.000000,700.000000) scale(0.100000,-0.100000)"
fill="#000000" stroke="none">
<path d="M4801 6990 c-51 -12 -112 -41 -154 -73 -60 -46 -227 -247 -256 -307
-23 -49 -26 -67 -26 -165 0 -118 18 -192 72 -299 103 -206 302 -401 522 -513
211 -107 442 -122 586 -38 48 28 65 44 125 114 25 29 64 74 87 99 23 26 57 74
75 107 29 55 32 69 35 160 3 119 -16 199 -77 323 -135 272 -421 504 -720 582
-55 15 -222 21 -269 10z m234 -145 c268 -69 520 -276 638 -525 42 -90 56 -138
59 -210 3 -84 -17 -143 -67 -189 -211 -194 -750 71 -947 464 -107 214 -76 405
76 459 54 19 167 20 241 1z"/>
<path d="M5060 6539 c-118 -28 -221 -56 -229 -64 -11 -11 -11 -17 0 -41 8 -15
25 -35 39 -45 24 -18 28 -18 89 -2 l64 16 24 -29 c12 -16 23 -33 23 -37 0 -13
64 -93 96 -120 75 -64 174 -92 232 -68 62 27 88 120 55 200 -34 81 -125 222
-149 231 -14 6 -26 10 -27 9 -1 0 -99 -23 -217 -50z m257 -126 c16 -27 32 -58
36 -71 8 -33 -10 -79 -34 -85 -26 -7 -77 8 -102 30 -23 21 -87 117 -87 132 0
8 101 37 142 40 9 1 28 -19 45 -46z"/>
<path d="M4766 5541 c-2 -3 -3 -192 -3 -418 l0 -413 51 0 51 0 0 417 0 418
-48 1 c-26 1 -49 -2 -51 -5z"/>
<path d="M5100 5271 c-14 -5 -16 -54 -14 -411 2 -223 3 -409 3 -415 1 -5 22
-10 49 -10 l47 0 2 418 2 417 -22 1 c-12 0 -29 2 -37 3 -8 2 -22 1 -30 -3z"/>
<path d="M4443 4190 c-74 -16 -97 -42 -191 -210 -119 -213 -255 -410 -362
-523 -25 -27 -93 -87 -152 -133 -102 -81 -273 -244 -383 -365 -347 -384 -483
-513 -645 -613 -76 -48 -203 -93 -275 -99 l-40 -3 -3 -807 c-1 -444 1 -807 5
-807 17 -1 201 -30 243 -39 138 -29 387 -114 830 -283 173 -66 320 -121 325
-122 6 -2 17 -6 25 -9 29 -12 165 -56 190 -61 14 -3 43 -10 65 -15 22 -5 51
-12 65 -15 14 -2 70 -14 125 -26 201 -42 273 -52 400 -53 150 -2 200 4 273 31
113 43 197 112 268 219 88 133 225 423 351 743 70 177 87 223 165 455 47 139
55 155 108 215 68 78 135 186 156 255 25 77 27 204 5 268 -29 85 -48 114 -111
176 -59 58 -129 99 -211 122 -32 9 -190 13 -599 15 -305 1 -571 4 -590 7 -19
4 -53 9 -75 12 -48 8 -119 38 -141 60 -22 21 -34 71 -27 108 3 18 19 57 34 87
37 70 237 342 312 425 33 35 137 195 159 243 68 150 89 227 93 332 4 120 -33
215 -120 303 -68 70 -124 98 -225 112 -8 1 -30 -1 -47 -5z"/>
<path d="M1249 2170 c-103 -32 -183 -103 -231 -206 l-23 -49 -3 -759 c-2 -680
-1 -764 14 -810 44 -139 157 -236 296 -254 35 -5 171 -8 303 -7 229 1 243 2
288 24 60 29 111 88 128 148 10 37 13 244 14 973 0 509 -1 933 -4 943 -3 17
-25 18 -365 16 -311 -1 -370 -4 -417 -19z"/>
</g>
</svg>
